<svg width="236" height="44" viewBox="0 0 236 44" fill="none" xmlns="http://www.w3.org/2000/svg">
<g filter="url(#filter0_d_70_585)">
<path d="M65.4191 26.256H66.0911C66.9445 26.256 67.3711 25.8613 67.3711 25.072V13.104H65.7071C64.8325 13.104 64.3951 13.52 64.3951 14.352V15.76H60.3631V9.392H80.2991V15.76H76.2671V14.352C76.2671 13.52 75.8298 13.104 74.9551 13.104H73.2911V25.072C73.2911 25.4347 73.3978 25.7227 73.6111 25.936C73.8458 26.1493 74.1765 26.256 74.6031 26.256H75.2751V30H65.4191V26.256ZM85.7256 30.48C83.0376 30.48 80.947 29.7867 79.4536 28.4C77.9816 27.0133 77.2456 24.9867 77.2456 22.32C77.2456 19.632 77.971 17.6053 79.4216 16.24C80.8723 14.8533 82.9736 14.16 85.7256 14.16C88.4563 14.16 90.5363 14.8533 91.9656 16.24C93.4163 17.6053 94.1416 19.632 94.1416 22.32C94.1416 24.9867 93.4056 27.0133 91.9336 28.4C90.4616 29.7867 88.3923 30.48 85.7256 30.48ZM85.7256 26.672C86.6643 26.672 87.315 26.3413 87.6776 25.68C88.0616 24.9973 88.2536 23.8773 88.2536 22.32C88.2536 20.7413 88.0616 19.6213 87.6776 18.96C87.315 18.2987 86.6643 17.968 85.7256 17.968C84.7656 17.968 84.1043 18.2987 83.7416 18.96C83.379 19.6 83.1976 20.72 83.1976 22.32C83.1976 23.8987 83.379 25.0187 83.7416 25.68C84.1043 26.3413 84.7656 26.672 85.7256 26.672ZM101.132 30.512C99.2124 30.512 97.8044 30.0533 96.9084 29.136C96.0124 28.1973 95.5644 26.8427 95.5644 25.072V19.632C95.5644 18.8213 95.127 18.416 94.2524 18.416H93.6444V14.64H101.58V25.04C101.58 25.7227 101.719 26.2133 101.996 26.512C102.274 26.8107 102.69 26.96 103.244 26.96C103.842 26.96 104.279 26.8107 104.556 26.512C104.834 26.2133 104.972 25.7227 104.972 25.04V19.632C104.972 19.2267 104.898 18.928 104.748 18.736C104.62 18.5227 104.364 18.416 103.98 18.416H103.468V14.64H110.956V24.976C110.956 25.7867 111.404 26.192 112.3 26.192H112.62V30H107.244L107.02 28.048C106.188 28.944 105.324 29.584 104.428 29.968C103.532 30.3307 102.434 30.512 101.132 30.512ZM113.246 26.224H113.598C114.472 26.224 114.91 25.8187 114.91 25.008V19.632C114.91 19.248 114.814 18.9493 114.622 18.736C114.451 18.5227 114.142 18.416 113.694 18.416H113.31V14.64H119.902L120.254 16.176C120.616 15.6427 121.139 15.2587 121.822 15.024C122.526 14.768 123.208 14.64 123.87 14.64H125.95V18.416H122.942C122.216 18.416 121.694 18.5867 121.374 18.928C121.075 19.2693 120.926 19.8027 120.926 20.528V25.008C120.926 25.4133 121.011 25.7227 121.182 25.936C121.374 26.128 121.683 26.224 122.11 26.224H122.43V30H113.246V26.224ZM128.253 8.272H134.269V12.592H128.253V8.272ZM126.269 26.224H126.941C127.411 26.224 127.741 26.1173 127.933 25.904C128.147 25.6907 128.253 25.3707 128.253 24.944V19.664C128.253 18.8533 127.816 18.448 126.941 18.448H126.269V14.64H134.269V25.008C134.269 25.8187 134.707 26.224 135.581 26.224H136.253V30H126.269V26.224ZM144.23 30.48C142.673 30.48 141.307 30.32 140.134 30C138.961 29.6587 137.883 29.104 136.902 28.336V25.488H142.214V26.48C142.641 26.7787 143.174 26.928 143.814 26.928C144.817 26.928 145.318 26.608 145.318 25.968C145.318 25.6053 145.201 25.3387 144.966 25.168C144.731 24.976 144.23 24.72 143.462 24.4C143.078 24.2507 142.438 23.9733 141.542 23.568C140.497 23.0773 139.675 22.6507 139.078 22.288C138.481 21.904 137.99 21.4347 137.606 20.88C137.222 20.304 137.03 19.6 137.03 18.768C137.03 17.2533 137.649 16.112 138.886 15.344C140.123 14.5547 141.809 14.16 143.942 14.16C145.371 14.16 146.715 14.3413 147.974 14.704C149.233 15.0667 150.331 15.6107 151.27 16.336V18.992H146.118V18.224C145.67 17.904 145.169 17.744 144.614 17.744C143.718 17.744 143.27 18.0853 143.27 18.768C143.27 19.088 143.43 19.376 143.75 19.632C144.091 19.888 144.561 20.144 145.158 20.4C145.755 20.6347 146.374 20.8693 147.014 21.104C148.635 21.7227 149.798 22.384 150.502 23.088C151.206 23.7707 151.558 24.7307 151.558 25.968C151.558 28.976 149.115 30.48 144.23 30.48ZM161.146 30.48C158.735 30.48 156.943 30 155.77 29.04C154.597 28.0587 154.01 26.6613 154.01 24.848V18.224H151.738V14.64H154.01V11.632L159.994 10.064V14.64H163.994V18.224H159.994V25.392C159.994 25.9467 160.111 26.3413 160.346 26.576C160.602 26.8107 160.975 26.928 161.466 26.928C162.063 26.928 162.543 26.7467 162.906 26.384V25.04H167.674V28.272C165.797 29.744 163.621 30.48 161.146 30.48ZM173.059 30.48C171.16 30.48 169.731 30.096 168.771 29.328C167.832 28.5387 167.363 27.4507 167.363 26.064C167.363 24.464 167.896 23.2693 168.963 22.48C170.051 21.6693 171.662 21.1893 173.795 21.04L176.611 20.848V19.152C176.611 18.2133 176.12 17.744 175.139 17.744C174.584 17.744 174.104 17.9573 173.699 18.384V19.44H168.771V16.048C170.798 14.7893 173.027 14.16 175.459 14.16C177.827 14.16 179.608 14.672 180.803 15.696C181.998 16.72 182.595 18.0853 182.595 19.792V25.296C182.595 26.0427 182.936 26.416 183.619 26.416H184.003V30H179.427L178.947 27.856C178.136 28.816 177.304 29.4987 176.451 29.904C175.598 30.288 174.467 30.48 173.059 30.48ZM174.403 26.896C175.875 26.896 176.611 26.2347 176.611 24.912V23.824L174.467 24.016C173.315 24.1013 172.739 24.6027 172.739 25.52C172.739 25.9467 172.878 26.288 173.155 26.544C173.454 26.7787 173.87 26.896 174.403 26.896ZM184.652 26.224H184.972C185.868 26.224 186.316 25.8187 186.316 25.008V19.696C186.316 18.8853 185.9 18.48 185.068 18.48H184.652V14.64H190.028L190.252 16.688C191.639 15.0027 193.601 14.16 196.14 14.16C198.06 14.16 199.468 14.6293 200.364 15.568C201.26 16.4853 201.708 17.8293 201.708 19.6V25.008C201.708 25.8187 202.145 26.224 203.02 26.224H203.628V30H195.692V19.632C195.692 18.9707 195.553 18.4907 195.276 18.192C194.999 17.8933 194.583 17.744 194.028 17.744C193.431 17.744 192.993 17.8933 192.716 18.192C192.439 18.4693 192.3 18.9493 192.3 19.632V25.008C192.3 25.4133 192.375 25.7227 192.524 25.936C192.695 26.128 192.983 26.224 193.388 26.224H193.804V30H184.652V26.224Z" fill="#18A0FB"/>
</g>
<path d="M4.08474 4C4.34033 4.1702 4.59726 4.3242 4.85112 4.51571C5.05158 4.66698 5.2482 4.86583 5.44677 5.04114C5.69391 5.25926 5.94205 5.46715 6.18836 5.69363C6.5576 6.033 6.92528 6.38874 7.29435 6.72982C7.52716 6.94504 7.76179 7.14167 7.99482 7.35468C8.37356 7.70104 8.75113 8.05952 9.13021 8.4023C9.38541 8.63304 9.64361 8.83291 9.89825 9.06928C10.2539 9.39944 10.6069 9.75672 10.9623 10.0905C11.1072 10.2266 11.2562 10.3209 11.4015 10.4527C11.6478 10.6761 11.8924 10.9164 12.1382 11.1454C12.3308 11.3248 12.5239 11.4979 12.7285 11.6843C12.8334 11.4742 12.9551 11.2005 13.0855 10.9751C13.4254 10.3879 13.9201 10.7187 14.1686 11.6722C14.4371 12.703 14.5053 13.8587 14.463 15.1637C14.4308 16.1565 14.2871 16.9475 14.1163 17.7351C14.1245 17.7654 14.1328 17.7959 14.141 17.8263C14.2185 17.6321 14.3096 17.4706 14.3705 17.2356C14.4607 16.8873 14.5387 16.5012 14.605 16.1045C14.6743 15.6896 14.7414 15.3047 14.9476 15.3265C14.8686 15.114 14.7987 15.0046 14.7721 14.8323C14.7447 14.6553 14.757 14.4169 14.7565 14.2052C14.7558 13.8773 14.816 13.7678 14.9114 13.8589C15.1657 14.1019 15.4179 14.3667 15.6724 14.6077C15.9053 14.8282 16.1401 15.0298 16.3742 15.2379C16.5191 15.3668 16.6643 15.494 16.8096 15.6182C16.8392 15.6434 16.8703 15.6516 16.9017 15.6683C16.9089 14.7525 16.5853 13.3014 16.2904 13.0812C15.9393 12.8191 15.5998 12.4129 15.2543 12.0784C15.1669 11.9939 15.0766 11.9297 14.9862 11.8822C14.7345 11.7496 14.5698 11.2073 14.393 10.7199C14.3289 10.5431 14.266 10.3616 14.2026 10.1822C14.2114 10.1369 14.22 10.0915 14.2287 10.0461C14.3465 10.113 14.4678 10.1449 14.5814 10.2532C14.9059 10.5624 15.2228 10.9556 15.5514 11.2102C15.7416 11.3576 15.933 11.5576 16.147 11.4302C16.3768 11.2936 16.6177 11.3479 16.8525 11.2759C17.3526 11.1226 17.8514 10.9287 18.3516 10.7759C18.8254 10.6311 19.3003 10.5149 19.7749 10.3913C20.1383 10.2967 20.5025 10.2267 20.8654 10.1155C21.3336 9.97211 21.8005 9.79083 22.2685 9.6399C22.8057 9.46664 23.3434 9.30752 23.881 9.14551C23.9776 9.11635 24.0748 9.10987 24.1714 9.08071C24.7408 8.90829 25.3097 8.72121 25.8795 8.5609C26.3948 8.41594 26.9113 8.30902 27.4268 8.16679C28.0329 7.99966 28.6385 7.81206 29.2443 7.63436C29.598 7.5305 29.952 7.43432 30.3055 7.32296C30.4336 7.28254 30.5601 7.18312 30.6883 7.15378C30.997 7.08301 31.2895 7.31818 31.5835 7.5878C31.9705 7.94253 32.3653 8.21812 32.7558 8.53771C32.9777 8.71933 33.1992 8.90812 33.4178 9.12317C33.4682 9.1728 33.506 9.34317 33.564 9.49597C33.517 9.59283 33.4908 9.68237 33.4592 9.70641C33.1786 9.92061 32.8964 10.1155 32.6159 10.332C32.4507 10.4593 32.2888 10.6263 32.1237 10.7554C31.9365 10.9017 31.7468 11.0172 31.5595 11.1615C31.2656 11.3878 30.9731 11.6313 30.6794 11.859C30.492 12.0043 30.3029 12.1272 30.1155 12.2722C29.786 12.5273 29.4581 12.8022 29.128 13.049C28.8108 13.286 28.4911 13.4893 28.1737 13.7235C27.8872 13.9348 27.6023 14.1658 27.317 14.3918C27.0276 14.621 26.7387 14.856 26.4494 15.0857C26.1202 15.3472 25.7916 15.6173 25.461 15.862C25.1387 16.1006 24.8133 16.2984 24.4912 16.5392C24.25 16.7197 24.0105 16.9252 23.7729 17.1469C23.5182 17.3844 23.2665 17.6522 23.0138 17.9097C22.7616 18.1669 22.511 18.4394 22.2575 18.6836C22.0123 18.92 21.7641 19.126 21.518 19.3545C21.4938 19.377 21.4759 19.4645 21.455 19.5218C21.475 19.5822 21.4918 19.6765 21.5156 19.698C21.8596 20.0089 22.2055 20.3003 22.549 20.6168C22.795 20.8435 23.0409 21.0768 23.2813 21.3534C23.4261 21.5202 23.5208 21.2045 23.6278 21.0749C23.8742 20.7768 24.1098 20.3924 24.3478 20.031C24.6191 19.6193 24.8889 19.1986 25.1581 18.7743C25.4877 18.2549 25.8165 17.7301 26.145 17.2031C26.3847 16.8186 26.6259 16.4408 26.8615 16.0336C27.0531 15.7022 27.2187 16.017 27.3912 16.1799C27.6543 16.4284 27.9168 16.683 28.179 16.9412C28.3317 17.0916 28.4847 17.2412 28.6345 17.416C28.7271 17.5239 28.7374 17.7059 28.6847 17.9881C28.448 19.2552 28.2197 20.5372 27.9868 21.8113C27.9314 22.1148 27.8642 22.3705 27.7352 22.3983C27.2189 22.5093 26.7029 22.634 26.1866 22.7419C26.1483 22.7499 26.108 22.6662 26.0686 22.6251C26.0835 22.5047 26.0875 22.3499 26.1148 22.2692C26.5515 20.9806 26.9908 19.7005 27.431 18.4232C27.4564 18.3497 27.4942 18.3163 27.5441 18.2351C27.5228 18.1355 27.5087 17.982 27.4814 17.9549C27.2854 17.7617 27.0977 17.5719 26.8893 17.9632C26.6139 18.4807 26.3174 18.8918 26.0318 19.3593C25.8539 19.6504 25.6808 19.9691 25.5031 20.2609C25.119 20.8916 24.7329 21.5105 24.3485 22.1392C24.0385 22.6462 23.7315 23.1715 23.4188 23.662C23.3595 23.7549 23.2726 23.7924 23.21 23.7355C22.8805 23.4353 22.556 23.0828 22.227 22.7753C21.8926 22.4627 21.5548 22.1832 21.2188 21.886C20.8793 21.5855 20.5391 21.2917 20.2014 20.9738C20.0343 20.8165 19.8806 20.9717 19.7271 21.1116C19.6108 21.2176 19.5004 21.3853 19.3874 21.5255C19.3899 21.5746 19.3924 21.6237 19.3949 21.673C19.632 21.9232 19.8691 22.1733 20.1062 22.4234C20.1031 22.4578 20.0999 22.4923 20.0968 22.5267C19.9479 22.4008 19.801 22.2458 19.65 22.1553C19.3734 21.9893 19.1125 21.6283 18.8086 22.0347C18.4826 22.4706 18.1241 22.6742 17.7824 23.004C17.395 23.378 17.0105 23.7795 16.6146 24.2696C16.771 24.4444 16.925 24.6439 17.0843 24.7884C17.3528 25.0318 17.6256 25.2308 17.895 25.4661C18.1646 25.7016 18.4321 25.9588 18.7007 26.2061C18.9738 26.4576 19.2458 26.7232 19.5207 26.9548C19.6934 27.1002 19.8697 27.2094 20.0459 27.3079C20.2818 27.4398 20.5188 27.5542 20.7559 27.661C21.3072 27.9093 21.8572 28.1941 22.4107 28.3788C22.9805 28.5689 23.5535 28.6709 24.1257 28.7872C24.6598 28.8958 25.1945 28.9739 25.7291 29.0621C25.7725 29.0693 25.8164 29.0512 25.8635 28.9823C25.7011 28.7592 25.5408 28.521 25.3759 28.3167C25.1081 27.9846 24.8371 27.6775 24.568 27.3543C24.3599 27.1043 24.153 26.8453 23.9453 26.592C23.7703 26.3785 23.5958 26.1597 23.4193 25.9586C23.3425 25.8713 23.2594 25.8369 23.1823 25.7519C23.1192 25.6824 23.0555 25.5937 23.0031 25.4697C22.9881 25.4341 22.9996 25.167 23.0188 25.1404C23.248 24.8213 23.4733 24.4308 23.7149 24.2517C24.0176 24.0274 24.3344 23.9823 24.6452 23.8596C24.7457 23.8201 24.8459 23.7701 24.9468 23.7425C25.435 23.6093 25.9237 23.4918 26.4116 23.3506C27.0042 23.179 27.596 22.9849 28.1885 22.8088C28.5652 22.6967 28.9422 22.591 29.3195 22.4992C29.4698 22.4627 29.6216 22.4496 29.7723 22.4638C30.1703 22.5009 30.502 23.1654 30.8612 23.5724C31.1571 23.9077 31.4556 24.2229 31.7549 24.5299C32.0183 24.8002 32.2837 25.0543 32.5495 25.3015C32.6905 25.4325 32.8354 25.5222 32.9766 25.6503C33.2565 25.9042 33.535 26.1737 33.8144 26.4329C33.9239 26.5345 34.0344 26.6258 34.1444 26.7223C34.4043 26.9505 34.6655 27.1666 34.9238 27.4113C35.1271 27.604 35.3269 27.832 35.5282 28.0445C35.5252 28.0882 35.5222 28.132 35.5192 28.1756C35.3553 28.0784 35.1902 27.9969 35.0277 27.8799C34.8501 27.752 34.6752 27.5893 34.4988 27.4456C34.1752 27.1817 33.8517 26.9166 33.5275 26.6604C33.3765 26.541 33.2229 26.4525 33.0722 26.3301C32.7799 26.0925 32.4891 25.8381 32.1972 25.5959C32.069 25.4895 31.9405 25.3819 31.8105 25.2993C31.5301 25.1215 31.2606 24.6774 30.96 24.9623C30.8502 25.0664 30.7383 25.1499 30.6278 25.2468C30.3454 25.4941 30.0638 25.7507 29.7806 25.9888C29.6437 26.1039 29.5031 26.1781 29.3653 26.2842C29.0887 26.497 28.8124 26.7131 28.537 26.9401C28.4276 27.0303 28.3211 27.1533 28.1896 27.2849C28.2318 27.3733 28.2625 27.4742 28.2998 27.5092C28.4437 27.6444 28.59 27.7559 28.7349 27.8815C28.8888 28.0148 29.0424 28.1519 29.1956 28.2916C29.3619 28.443 29.5279 28.5981 29.6937 28.7538C29.8514 28.9018 30.0083 29.0585 30.1665 29.2009C30.3159 29.3355 30.4675 29.448 30.6167 29.5848C30.8886 29.834 31.1594 30.0954 31.4309 30.3488C31.5485 30.4587 31.6666 30.5658 31.785 30.6672C32.0187 30.8674 32.2537 31.0537 32.4866 31.2629C32.772 31.5194 33.055 31.8008 33.3404 32.0581C33.5869 32.2804 33.8359 32.4765 34.0825 32.6973C34.3639 32.9495 34.6436 33.2207 34.9247 33.4758C35.1752 33.7032 35.4274 33.9131 35.6775 34.1437C35.86 34.3118 36.0402 34.5037 36.222 34.68C36.3507 34.8048 36.4804 34.9198 36.6094 35.0422C36.6599 35.0902 36.7097 35.1463 36.7598 35.1986C36.7566 35.2341 36.7535 35.2696 36.7504 35.3052C36.5111 35.1278 36.2719 34.9491 36.0324 34.774C35.8775 34.6607 35.7209 34.5669 35.5673 34.4389C35.4046 34.3033 35.2452 34.1309 35.0832 33.9871C34.9643 33.8815 34.8435 33.7959 34.7234 33.7018C34.4527 33.4896 34.1809 33.2905 33.9116 33.0623C33.6336 32.8266 33.3586 32.5587 33.0815 32.3126C32.9452 32.1915 32.8068 32.0926 32.6701 31.9763C32.361 31.7131 32.0526 31.4433 31.7436 31.1804C31.6287 31.0825 31.5125 30.9984 31.3973 30.9036C31.1404 30.6923 30.8826 30.4904 30.6272 30.2624C30.3642 30.0274 30.1048 29.7531 29.8415 29.52C29.5777 29.2864 29.3106 29.0863 29.0457 28.8634C28.9088 28.7483 28.7736 28.6138 28.6373 28.4915C28.3562 28.2396 28.0763 27.9744 27.7929 27.7493C27.7121 27.685 27.6213 27.7394 27.5185 27.7394C27.5347 27.8663 27.5362 27.9323 27.5476 27.9589C27.7013 28.318 27.6492 28.763 27.5998 29.1941C27.5223 29.8699 27.4457 30.5484 27.3533 31.2053C27.3222 31.4271 27.2514 31.618 27.185 31.7648C27.14 31.8644 27.0718 31.884 27.0128 31.9026C26.5675 32.0424 26.1222 32.1825 25.6764 32.3039C25.3036 32.4054 24.9298 32.4777 24.5568 32.5711C24.3567 32.6213 24.2761 33.0121 24.3476 33.5799C24.3571 33.6549 24.389 33.732 24.4153 33.7538C24.6805 33.9753 24.9489 34.1633 25.2122 34.4044C25.5667 34.7293 25.9158 35.111 26.2706 35.4338C26.5387 35.6777 26.8124 35.8636 27.0829 36.0835C27.1893 36.1702 27.2943 36.274 27.399 36.3793C27.6643 36.646 27.9281 36.9269 28.1944 37.1839C28.3253 37.3102 28.4621 37.3791 28.593 37.5045C28.7868 37.6897 28.9778 37.9018 29.17 38.1026C29.1664 38.1445 29.1629 38.1865 29.1593 38.2284C29.0159 38.1353 28.872 38.0483 28.7292 37.9475C28.5414 37.815 28.3536 37.6817 28.1673 37.5309C27.8799 37.2981 27.5941 37.0462 27.3068 36.8107C27.1651 36.6946 27.0209 36.6076 26.8793 36.4896C26.5568 36.221 26.2365 35.9277 25.913 35.6705C25.6287 35.4445 25.3411 35.2585 25.0558 35.0456C24.9533 34.9691 24.8526 34.8683 24.7517 34.7736C24.4842 34.5229 24.2125 34.3067 23.9508 34.0077C23.6514 33.6658 23.3621 33.2407 23.0656 32.8731C23.0086 32.8024 22.9384 32.8182 22.8742 32.8158C22.2815 32.7937 21.688 32.8319 21.0965 32.7406C20.5866 32.662 20.0787 32.4465 19.5705 32.2737C19.3052 32.1835 19.0375 32.1091 18.7778 31.9323C18.3338 31.6299 17.895 31.2568 17.4548 30.9051C17.1968 30.6989 16.9396 30.4829 16.683 30.2601C16.4318 30.0422 16.1823 29.8057 15.9312 29.586C15.6534 29.3428 15.3744 29.1114 15.0963 28.8711C14.9814 28.7718 14.867 28.6665 14.753 28.5577C14.499 28.315 14.2463 28.0597 13.9914 27.8259C13.7575 27.6113 13.5226 27.4067 13.286 27.2234C13.2212 27.1732 13.1489 27.2157 13.0705 27.2157C13.0932 27.5481 13.0342 27.6659 12.9451 27.8032C12.6297 28.2891 12.3238 28.8324 12.0112 29.3358C11.7518 29.7535 11.4906 30.1619 11.2258 30.5448C10.8804 31.0439 10.5588 31.6483 10.2668 32.4062C10.1056 32.8247 9.93477 33.2079 9.76954 33.6121C9.66828 33.8599 9.56186 33.7579 9.45443 33.676C9.19679 33.4796 8.93598 33.3154 8.68239 33.0781C8.54395 32.9485 8.45542 32.6092 8.43636 32.1361C8.40913 31.4623 8.37717 30.7904 8.35061 30.1164C8.31621 29.2448 8.29709 28.3649 8.24429 27.5044C8.23095 27.2866 8.12392 27.0687 8.04417 26.9525C7.53605 26.2131 7.36015 24.1543 7.52538 22.7264C7.55933 22.4327 7.66554 22.3826 7.72912 22.6746C7.90084 23.4628 8.17171 23.6886 8.44158 23.9171C8.50427 23.9701 8.60219 24.1134 8.63293 23.7302C8.667 23.3059 8.62648 23.0586 8.51 22.9517C8.02611 22.5078 7.54361 22.0495 7.05894 21.6133C6.80791 21.3873 6.55221 21.2103 6.30101 20.9859C5.9445 20.6671 5.5906 20.3203 5.23475 19.9947C4.97961 19.7612 4.72252 19.5477 4.46715 19.3161C4.18539 19.0605 3.90513 18.7893 3.62325 18.5345C3.381 18.3156 3.13386 18.1421 2.89528 17.8909C2.5441 17.521 2.19042 17.1556 1.85281 16.6862C1.42471 16.0912 1.03953 15.2651 0.701798 14.2564C0.506564 13.6733 0.318221 13.0631 0.145161 12.4187C0.0725251 12.1472 0.0470162 11.7556 0 11.4185C0 11.0206 0 10.6226 0 10.2247C0.13927 8.91852 0.432316 8.00665 0.803166 7.30403C1.10583 6.7305 1.41299 6.17949 1.71704 5.61262C1.99258 5.09895 2.28223 4.70023 2.59973 4.49269C2.81836 4.34995 3.0341 4.16576 3.25112 4C3.529 4 3.80687 4 4.08474 4ZM5.3359 16.4376C5.38625 16.7067 5.65195 16.9577 5.78027 16.8433C5.65217 16.4381 5.48378 16.5271 5.33112 16.4519C5.31361 16.3849 5.30022 16.2788 5.27793 16.2567C5.06786 16.0472 4.85618 15.8526 4.6451 15.6526C4.43614 15.4546 4.22768 15.251 4.01822 15.0579C3.88256 14.9329 3.74446 14.8323 3.60925 14.7025C3.45747 14.5569 3.30753 14.393 3.15737 14.2324C3.0989 14.1698 3.04294 14.0845 2.98409 14.0262C2.84871 13.8918 2.71233 13.7675 2.57633 13.6392C2.57133 13.6924 2.56639 13.7456 2.56138 13.7987C2.70455 13.9515 2.84871 14.0963 2.99064 14.2593C3.11619 14.4034 3.23723 14.5864 3.36394 14.7192C3.6696 15.0395 3.97665 15.3484 4.28481 15.6458C4.42003 15.7762 4.56469 15.8262 4.69546 15.9867C4.90275 16.2408 5.11093 16.4395 5.3359 16.4376ZM12.3667 14.314C12.0403 14.4401 11.7302 14.5671 11.4194 14.678C11.1534 14.7728 10.8862 14.8386 10.6203 14.9362C10.2674 15.0654 9.91526 15.2126 9.5628 15.3528C9.37085 15.4292 9.17895 15.5076 8.98694 15.5832C8.8953 15.6192 8.8036 15.6634 8.71151 15.6767C8.68089 15.6811 8.64165 15.6207 8.62109 15.5496C8.61236 15.5194 8.63354 15.3506 8.65482 15.3049C8.842 14.9031 9.03156 14.5119 9.22185 14.1241C9.31494 13.9344 9.41103 13.7586 9.50573 13.5765C9.10276 13.1474 8.71701 12.8358 8.33171 12.5189C8.09207 12.3218 7.85199 12.1284 7.61407 11.9125C7.35554 11.678 7.10034 11.4087 6.84181 11.1744C6.60467 10.9595 6.36442 10.7772 6.12723 10.5634C6.09627 10.5356 6.07515 10.4055 6.04948 10.3227C6.08188 10.2564 6.11306 10.1416 6.14696 10.1334C6.21998 10.116 6.29695 10.1217 6.36787 10.1744C6.59528 10.3429 6.82002 10.5443 7.04693 10.7192C7.34054 10.9457 7.63625 11.1468 7.92918 11.3813C8.24435 11.6335 8.55723 11.9127 8.87129 12.1782C9.10998 12.3801 9.3519 12.5512 9.58703 12.7864C9.8962 13.0955 10.2004 13.3073 10.5322 13.1136C10.7729 12.9731 11.0235 12.9915 11.2697 12.9392C11.2314 12.7759 11.1878 12.6719 11.1384 12.6284C10.9882 12.4964 10.8348 12.3987 10.6845 12.2676C10.4507 12.0634 10.2181 11.8467 9.98567 11.6282C9.73564 11.393 9.48783 11.1354 9.23658 10.9138C8.96265 10.6722 8.68372 10.483 8.41085 10.2312C7.96697 9.82153 7.52727 9.3696 7.084 8.95399C6.67164 8.56738 6.25733 8.20038 5.84313 7.8327C5.46761 7.49929 5.08837 7.20307 4.71563 6.84272C4.2578 6.4 3.78992 6.32564 3.31703 6.39983C3.20633 6.41722 3.08985 6.48254 2.98197 6.75063C3.14097 6.93924 3.31854 6.78269 3.42607 7.39254C3.27107 7.55353 3.13414 7.77727 2.99064 7.82844C2.64325 7.95208 2.29274 7.99454 1.94356 8.07162C1.89766 8.08169 1.8423 8.05645 1.80768 8.12517C1.52358 8.68983 1.24115 9.26335 0.963944 9.85922C0.911426 9.97211 0.88425 10.1959 0.826063 10.4539C0.970724 10.5322 1.07359 10.5985 1.17746 10.6418C1.34674 10.7124 1.52447 10.6913 1.68475 10.8449C2.104 11.2467 2.51492 11.7295 2.93096 12.1641C3.07401 12.3134 3.22272 12.4112 3.36805 12.5409C3.53939 12.6939 3.70934 12.8612 3.88073 13.0128C4.13221 13.2352 4.38496 13.4436 4.63616 13.6689C4.79488 13.8113 4.95077 13.9832 5.10954 14.1251C5.36552 14.3536 5.62316 14.5649 5.87953 14.7897C6.27239 15.134 6.66464 15.4846 7.05733 15.8305C7.29585 16.0406 7.54016 16.2026 7.77174 16.4691C7.93985 16.6627 8.09913 16.7988 8.27953 16.7071C8.50166 16.5942 8.72579 16.5171 8.94931 16.4309C9.4023 16.2563 9.85518 16.0774 10.3088 15.9176C10.5335 15.8385 10.7604 15.817 10.985 15.7348C11.3924 15.5854 11.7982 15.3966 12.2057 15.252C12.3815 15.1896 12.3915 15.1918 12.3809 14.6384C12.3791 14.54 12.3726 14.4435 12.3667 14.314ZM23.703 10.488C23.6999 10.4278 23.6969 10.3676 23.6937 10.3076C23.5904 10.3253 23.4864 10.3253 23.384 10.364C22.9561 10.5253 22.5289 10.7025 22.1011 10.8659C21.6352 11.044 21.1691 11.2184 20.7027 11.3828C20.5604 11.433 20.4159 11.4231 20.2739 11.4771C19.8626 11.6338 19.4523 11.8175 19.0409 11.9724C18.8944 12.0276 18.745 12.0113 18.5981 12.0609C18.076 12.237 17.5543 12.4258 17.0327 12.6162C16.9941 12.6301 16.9576 12.6936 16.9201 12.734C16.9418 12.8421 16.9556 12.9864 16.9868 13.0503C17.0394 13.158 17.1054 13.294 17.1619 13.2796C17.5339 13.1844 17.9062 13.0812 18.2759 12.9253C18.8143 12.6984 19.35 12.4144 19.8879 12.1748C20.1933 12.0387 20.5011 11.9562 20.8067 11.8249C21.194 11.6586 21.5805 11.4718 21.9669 11.2853C22.3028 11.1231 22.6377 10.9421 22.9739 10.7851C23.0694 10.7404 23.1686 10.7713 23.2644 10.7298C23.4114 10.6662 23.5569 10.5702 23.703 10.488ZM9.13343 25.5971C9.06174 24.8157 9.12165 24.6132 9.37263 24.7737C9.65145 24.9521 9.92976 25.1375 10.2087 25.3135C10.5777 25.5463 10.9486 25.7525 11.3159 26.0071C11.7697 26.3217 12.2201 26.6815 12.6734 27.0032C12.7467 27.0552 12.8274 27.0105 12.9047 27.0105C12.8123 26.8364 12.7192 26.7221 12.6233 26.6369C12.4622 26.4936 12.2985 26.3794 12.1377 26.2342C11.878 25.9999 11.6206 25.7432 11.3609 25.5096C11.1012 25.276 10.8393 25.0664 10.5797 24.8327C10.3255 24.6039 10.0729 24.3573 9.81956 24.1195C9.63094 23.9427 9.44215 23.7677 9.25348 23.5915C9.16667 23.5105 9.08914 23.4761 9.06241 23.8433C9.02562 24.3491 8.98344 24.8512 8.94526 25.3561C8.93759 25.4578 8.93748 25.5649 8.93314 25.6914C9.00895 25.6554 9.07091 25.6264 9.13343 25.5971ZM12.8029 14.7187C12.9561 14.2694 13.0864 13.7717 13.2515 13.4358C13.4165 13.1 13.6165 12.926 13.8019 12.6803C13.6023 11.7981 13.2879 11.8579 13.0854 12.3076C12.8373 12.8587 12.7138 13.8538 12.8029 14.7187ZM6.42155 17.5422C6.42578 17.4939 6.43005 17.4457 6.43428 17.3972C6.31385 17.2831 6.19342 17.1689 6.07304 17.0548C6.06776 17.114 6.06243 17.1731 6.05715 17.2323C6.17858 17.3357 6.30007 17.4388 6.42155 17.5422Z" fill="#18A0FB"/>
<path d="M13.6408 29.9321C13.8109 30.0493 13.982 30.1552 14.1509 30.2867C14.3196 30.4178 14.4866 30.5681 14.6533 30.721C14.9297 30.975 15.2041 31.2497 15.4815 31.4939C15.7456 31.7264 16.013 31.9232 16.2776 32.151C16.4189 32.2726 16.5566 32.4324 16.697 32.5642C16.815 32.6751 16.9346 32.7706 17.0536 32.8721C17.3101 33.0909 17.5677 33.2996 17.823 33.5305C18.0695 33.7532 18.3132 34.0051 18.5593 34.2316C18.7123 34.3725 18.8687 34.4799 19.0218 34.6209C19.2984 34.8757 19.5725 35.1575 19.85 35.4035C20.1176 35.6409 20.3883 35.8454 20.6572 36.069C20.7498 36.1459 20.8413 36.2351 20.9331 36.3212C21.1917 36.5642 21.45 36.8098 21.7086 37.0521C21.8439 37.1789 21.9795 37.302 22.1151 37.4249C22.4133 37.6954 22.7114 37.9667 23.0099 38.2336C23.1194 38.3315 23.23 38.4176 23.34 38.5103C23.5956 38.7255 23.8521 38.932 24.1065 39.1595C24.3706 39.3955 24.6327 39.653 24.8958 39.8993C25.0097 40.0059 25.1236 40.1128 25.2383 40.2114C25.4981 40.4346 25.7595 40.6417 26.0183 40.8761C26.2773 41.1108 26.5338 41.3729 26.7918 41.6188C26.9054 41.7271 27.0198 41.8284 27.1344 41.9265C27.4039 42.1571 27.6749 42.3708 27.9429 42.6153C28.3675 43.0029 28.7903 43.4095 29.2135 43.8116C29.2291 43.8265 29.241 43.8787 29.2476 44.0001C29.1282 43.929 29.0078 43.8717 28.8898 43.7838C28.6153 43.5794 28.3414 43.3679 28.0686 43.1445C27.8168 42.9385 27.5667 42.7129 27.3158 42.4968C27.1398 42.3452 26.9634 42.1966 26.7875 42.0443C26.5183 41.811 26.2492 41.5762 25.9801 41.3409C25.8524 41.2292 25.7255 41.1081 25.5973 41.0027C25.3362 40.7883 25.0733 40.5944 24.8133 40.3686C24.5355 40.1273 24.2606 39.8548 23.9836 39.6044C23.8695 39.5014 23.7535 39.4189 23.6381 39.3307C23.4695 39.202 23.3002 39.0817 23.1321 38.9473C23.0348 38.8696 22.9393 38.7713 22.8431 38.682C22.58 38.4378 22.3173 38.19 22.0537 37.9509C21.9263 37.8353 21.7969 37.7411 21.6691 37.6287C21.3518 37.3496 21.0359 37.0533 20.7175 36.787C20.4523 36.5653 20.1826 36.3932 19.9178 36.1679C19.6527 35.9424 19.3917 35.6721 19.1278 35.4327C18.8807 35.2084 18.6317 35.005 18.3846 34.7814C18.1034 34.5271 17.8235 34.2599 17.5429 33.9998C17.43 33.8953 17.3165 33.7972 17.2037 33.6917C16.9016 33.4087 16.5998 33.1214 16.2975 32.8397C16.0574 32.6161 15.8146 32.4176 15.5768 32.1734C15.2516 31.8394 14.9302 31.4706 14.6067 31.1208C14.2962 30.7852 13.9851 30.4548 13.6743 30.1219C13.659 30.1056 13.6442 30.0856 13.6292 30.0675C13.633 30.0225 13.6369 29.9773 13.6408 29.9321Z" fill="#18A0FB"/>
<path d="M13.968 28.8845C14.1096 28.9783 14.252 29.0627 14.3927 29.1685C14.5741 29.3049 14.7552 29.4475 14.9346 29.6071C15.1763 29.8221 15.4162 30.057 15.6571 30.2814C15.805 30.4192 15.9532 30.5534 16.1013 30.6893C16.3776 30.9431 16.6535 31.201 16.9304 31.4493C17.0707 31.5751 17.2137 31.6728 17.3536 31.8021C17.6391 32.0661 17.922 32.3574 18.2086 32.6101C18.4777 32.8475 18.7514 33.0354 19.0208 33.2713C19.2755 33.4944 19.5264 33.7589 19.7804 33.9906C19.9343 34.1312 20.0912 34.2406 20.2461 34.3711C20.3789 34.483 20.5113 34.5993 20.643 34.7234C20.805 34.8762 20.9653 35.0461 21.1275 35.1958C21.4084 35.4552 21.6897 35.711 21.9718 35.9571C22.2365 36.188 22.5034 36.3966 22.7679 36.6302C22.918 36.7628 23.0644 36.9335 23.2138 37.0736C23.3486 37.2004 23.4858 37.3035 23.621 37.427C23.9185 37.6987 24.215 37.9802 24.5127 38.2504C24.6268 38.3539 24.7439 38.4272 24.8579 38.5316C25.1739 38.8206 25.4876 39.1332 25.8048 39.409C26.0778 39.6464 26.3567 39.8214 26.6287 40.0693C26.8737 40.2927 27.1119 40.5856 27.3547 40.8325C27.4802 40.9601 27.6098 41.0504 27.7368 41.1649C27.8983 41.3105 28.0593 41.4616 28.2199 41.6165C28.2339 41.6299 28.2432 41.69 28.2434 41.8296C27.9903 41.6243 27.7379 41.4099 27.4838 41.2159C27.2038 41.0018 26.9208 40.8235 26.6418 40.5982C26.3679 40.377 26.098 40.1094 25.8251 39.8763C25.671 39.7446 25.5133 39.6529 25.3592 39.5219C25.1971 39.3841 25.038 39.2139 24.8764 39.0708C24.7312 38.9422 24.5839 38.8348 24.4381 38.7117C24.1387 38.4588 23.8397 38.1999 23.5403 37.947C23.4165 37.8424 23.2919 37.748 23.1678 37.6473C22.6797 37.252 22.1905 36.8693 21.7041 36.4549C21.4441 36.2334 21.1897 35.9506 20.9316 35.7073C20.8137 35.5961 20.6926 35.5178 20.5737 35.417C20.3304 35.211 20.087 35.006 19.8447 34.7893C19.563 34.5372 19.2827 34.271 19.0015 34.0149C18.8831 33.9071 18.7641 33.8066 18.645 33.707C18.2779 33.3999 17.9084 33.1163 17.5439 32.7824C17.2013 32.4686 16.8645 32.0966 16.524 31.7613C16.2884 31.5294 16.0498 31.3258 15.8144 31.092C15.6058 30.8848 15.3997 30.6542 15.1927 30.432C14.9559 30.1777 14.7174 29.9367 14.4835 29.6601C14.3063 29.4507 14.135 29.1944 13.9611 28.9589C13.9633 28.934 13.9656 28.9092 13.968 28.8845Z" fill="#18A0FB"/>
<path d="M20.7401 43.7796C20.3738 43.5023 20.0075 43.2238 19.6411 42.9482C19.512 42.8512 19.3823 42.7627 19.2531 42.6673C18.8428 42.3645 18.431 42.08 18.0231 41.7509C17.6463 41.4468 17.2742 41.0888 16.8992 40.7652C16.634 40.5363 16.3669 40.3279 16.1013 40.1048C15.9862 40.0081 15.8723 39.8993 15.7582 39.7924C15.2945 39.3577 14.8322 38.909 14.367 38.4907C14.0943 38.2454 13.8153 38.0665 13.5423 37.8235C13.1952 37.5145 12.8512 37.1734 12.5063 36.8412C12.2664 36.6101 12.0254 36.3883 11.7886 36.1309C11.508 35.8258 11.2304 35.4936 10.9533 35.16C10.8212 35.0011 10.6929 34.8118 10.5629 34.6363C10.5681 34.5875 10.5734 34.5388 10.5787 34.49C10.7092 34.5879 10.8402 34.6796 10.9701 34.7852C11.1382 34.9218 11.3061 35.0621 11.473 35.2136C11.7368 35.453 11.9992 35.708 12.2632 35.9462C12.4126 36.0811 12.5649 36.1853 12.7142 36.3214C12.9861 36.5695 13.2565 36.8332 13.5279 37.0864C13.65 37.2004 13.7724 37.3129 13.8958 37.4115C14.0557 37.5392 14.2175 37.6458 14.3774 37.7749C14.4612 37.8426 14.5424 37.9422 14.6252 38.022C14.8868 38.2739 15.1484 38.5248 15.4104 38.7727C15.5283 38.8844 15.6465 38.9941 15.7654 39.0945C16.0173 39.3074 16.2707 39.5042 16.5218 39.7252C16.7686 39.9425 17.0131 40.1834 17.259 40.4101C17.4087 40.5481 17.5593 40.6768 17.7091 40.8132C18.0029 41.0808 18.2963 41.3523 18.5902 41.619C18.7045 41.7227 18.8195 41.8198 18.9344 41.917C19.1946 42.1371 19.4576 42.3305 19.7145 42.5817C19.9752 42.8367 20.229 43.1565 20.488 43.4297C20.5731 43.5195 20.6646 43.5521 20.7532 43.6109C20.7489 43.6672 20.7445 43.7235 20.7401 43.7796Z" fill="#18A0FB"/>
<path d="M34.3063 10.3105C35.2693 11.0115 36.2128 11.9407 37.164 12.774C38.1135 13.6055 39.055 14.5244 40 15.4049C39.9967 15.4501 39.9935 15.4953 39.9902 15.5405C39.9213 15.5053 39.8519 15.4781 39.7837 15.4332C39.6412 15.3397 39.4995 15.2355 39.3572 15.1385C39.1785 15.0166 38.9987 14.9091 38.8211 14.7737C38.6521 14.6448 38.4861 14.4799 38.3176 14.3453C38.153 14.2138 37.9864 14.1064 37.8214 13.9785C37.4972 13.7273 37.1731 13.4751 36.8498 13.2121C36.5841 12.9959 36.3195 12.7668 36.0551 12.5364C35.9578 12.4517 35.8615 12.3546 35.7663 12.2492C35.4228 11.8688 35.0784 11.4956 34.7378 11.0925C34.5859 10.9127 34.4421 10.6688 34.2946 10.4541C34.2985 10.4062 34.3024 10.3583 34.3063 10.3105Z" fill="#18A0FB"/>
<defs>
<filter id="filter0_d_70_585" x="56.3631" y="8.27197" width="151.265" height="30.24" filterUnits="userSpaceOnUse" color-interpolation-filters="sRGB">
<feFlood flood-opacity="0" result="BackgroundImageFix"/>
<feColorMatrix in="SourceAlpha" type="matrix" values="0 0 0 0 0 0 0 0 0 0 0 0 0 0 0 0 0 0 127 0" result="hardAlpha"/>
<feOffset dy="4"/>
<feGaussianBlur stdDeviation="2"/>
<feComposite in2="hardAlpha" operator="out"/>
<feColorMatrix type="matrix" values="0 0 0 0 0 0 0 0 0 0 0 0 0 0 0 0 0 0 0.25 0"/>
<feBlend mode="normal" in2="BackgroundImageFix" result="effect1_dropShadow_70_585"/>
<feBlend mode="normal" in="SourceGraphic" in2="effect1_dropShadow_70_585" result="shape"/>
</filter>
</defs>
</svg>
